<svg xmlns="http://www.w3.org/2000/svg" xmlns:xlink="http://www.w3.org/1999/xlink" width="500" zoomAndPan="magnify" viewBox="0 0 375 374.999991" height="500" preserveAspectRatio="xMidYMid meet" version="1.0"><defs><clipPath id="ecff04653b"><path d="M 0 10.078125 L 173 10.078125 L 173 364.828125 L 0 364.828125 Z M 0 10.078125 " clip-rule="nonzero"/></clipPath><clipPath id="6e7afda276"><path d="M 202 10.078125 L 375 10.078125 L 375 364.828125 L 202 364.828125 Z M 202 10.078125 " clip-rule="nonzero"/></clipPath></defs><g clip-path="url(#ecff04653b)"><path fill="#000000" d="M 0 10.148438 L 172.257812 10.148438 L 172.257812 30.441406 L 20.296875 30.441406 L 20.296875 157.054688 L 121.628906 157.054688 L 121.628906 177.34375 L 20.296875 177.34375 L 20.296875 344.464844 L 172.257812 344.464844 L 172.257812 364.757812 L 0 364.757812 Z M 0 10.148438 " fill-opacity="1" fill-rule="nonzero"/></g><g clip-path="url(#6e7afda276)"><path fill="#000000" d="M 354.703125 10.148438 L 354.703125 156.980469 L 202.816406 156.980469 L 202.816406 177.269531 L 354.703125 177.269531 L 354.703125 364.683594 L 375 364.683594 L 375 10.148438 Z M 354.703125 10.148438 " fill-opacity="1" fill-rule="nonzero"/></g></svg>